<svg width="30" height="30" viewBox="0 0 30 30" fill="none" xmlns="http://www.w3.org/2000/svg">
<g clip-path="url(#clip0)">
<path d="M29.8494 4.332L29.8104 4.36323L29.8494 4.332C29.6757 4.11488 29.4127 3.98851 29.1346 3.98851H6.14243L5.50731 1.23644L5.50731 1.23644C5.41143 0.821121 5.0416 0.526904 4.61537 0.526904H0.865371C0.359864 0.526904 -0.05 0.936773 -0.05 1.44233C-0.05 1.9479 0.359868 2.35771 0.865371 2.35771H3.88718L8.25003 21.2635C8.34585 21.6789 8.71574 21.9731 9.14197 21.9731H26.4807C26.9863 21.9731 27.3961 21.5632 27.3961 21.0577C27.3961 20.5521 26.9862 20.1423 26.4807 20.1423H9.87022L9.22767 17.3577H26.5385C26.9667 17.3577 27.3376 17.061 27.4316 16.6433L30.0277 5.10481C30.0887 4.83347 30.0232 4.54917 29.8494 4.332ZM27.9904 5.81925L25.8062 15.5269H8.80517L6.56494 5.81925H27.9904Z" fill="#383838" stroke="#383838" stroke-width="0.1"/>
<path d="M12.6923 23.0269C10.915 23.0269 9.46917 24.4727 9.46917 26.25C9.46917 28.0273 10.915 29.4731 12.6923 29.4731C14.4695 29.4731 15.9153 28.0273 15.9153 26.25C15.9153 24.4727 14.4695 23.0269 12.6923 23.0269ZM12.6923 27.6423C11.9246 27.6423 11.3 27.0177 11.3 26.25C11.3 25.4823 11.9246 24.8577 12.6923 24.8577C13.4599 24.8577 14.0845 25.4823 14.0845 26.25C14.0845 27.0177 13.4599 27.6423 12.6923 27.6423Z" fill="#383838" stroke="#383838" stroke-width="0.1"/>
<path d="M23.0769 23.0269C21.2997 23.0269 19.8538 24.4727 19.8538 26.25C19.8538 28.0273 21.2996 29.4731 23.0769 29.4731C24.8541 29.4731 26.3 28.0273 26.3 26.25C26.3 24.4727 24.8542 23.0269 23.0769 23.0269ZM23.0769 27.6423C22.3092 27.6423 21.6846 27.0177 21.6846 26.25C21.6846 25.4824 22.3092 24.8578 23.0769 24.8578C23.8446 24.8578 24.4692 25.4824 24.4692 26.25C24.4692 27.0177 23.8446 27.6423 23.0769 27.6423Z" fill="#383838" stroke="#383838" stroke-width="0.1"/>
</g>
<defs>
<clipPath id="clip0">
<rect width="30" height="30" fill="white"/>
</clipPath>
</defs>
</svg>
