<svg width="43" height="44" viewBox="0 0 43 44" fill="none" xmlns="http://www.w3.org/2000/svg">
<path d="M35.6855 0H7.1371C5.24422 0 3.42888 0.772617 2.09041 2.14789C0.751942 3.52315 0 5.38842 0 7.33333V36.6667C0 38.6116 0.751942 40.4769 2.09041 41.8521C3.42888 43.2274 5.24422 44 7.1371 44H35.6855C37.5784 44 39.3938 43.2274 40.7321 41.8521C42.0706 40.4769 42.8226 38.6116 42.8226 36.6667V7.33333C42.8226 5.38842 42.0706 3.52315 40.7321 2.14789C39.3938 0.772617 37.5784 0 35.6855 0ZM17.5858 29.4067L11.8761 19.14H18.2995L24.0092 29.4067H17.5858ZM31.4032 36.6667L21.4113 19.0667H27.8347C28.8175 19.0882 29.7834 18.8018 30.6039 18.2453C31.1443 17.6827 31.4473 16.9239 31.4473 16.1333C31.4473 15.3428 31.1443 14.584 30.6039 14.0213C30.3314 13.7512 30.0093 13.5395 29.6565 13.3985C29.3035 13.2575 28.9269 13.19 28.5484 13.2H8.56452L4.99597 7.33333H28.5484C30.2412 7.33486 31.8955 7.8518 33.3027 8.81886C34.7097 9.78592 35.8062 11.1597 36.4539 12.7668C37.1015 14.3738 37.2711 16.142 36.9412 17.848C36.6113 19.554 35.797 21.1213 34.6006 22.352C33.5913 23.3974 32.3382 24.1598 30.9607 24.5667L37.8266 36.6667H31.4032Z" fill="#383838"/>
</svg>
