<svg width="60" height="60" viewBox="0 0 60 60" fill="none" xmlns="http://www.w3.org/2000/svg">
<g clip-path="url(#clip0)">
<path d="M1.17188 23.4724C3.44883 22.0907 5.72461 20.7091 8.00156 19.3263V27.6185C5.72461 26.2357 3.44883 24.854 1.17188 23.4724Z" fill="#FFD637"/>
<path d="M58.828 23.4725C56.5511 24.8413 54.2753 26.2088 51.9984 27.5776V19.3674C54.2753 20.7362 56.5511 22.1038 58.828 23.4725Z" fill="#FFD637"/>
<path d="M8.00137 6.05817H51.9991V38.707H8.00137V6.05817Z" fill="#FAF7F5"/>
<path d="M58.8281 23.4724V53.9411H1.17188V23.4724C10.7344 29.2778 20.2957 35.0821 29.8582 40.8864C39.5145 35.0821 49.1719 29.2778 58.8281 23.4724Z" fill="#FFD637"/>
<path d="M1.17188 53.9415C10.7339 48.1367 20.2959 42.332 29.8579 36.5273C39.5147 42.332 49.1714 48.1367 58.8281 53.9415C39.6094 53.9415 20.3906 53.9415 1.17188 53.9415Z" fill="#FFD637"/>
<path d="M59.4311 22.4696L59.4319 22.4682L53.1702 18.7045V6.05847C53.1702 5.41136 52.6454 4.8866 51.9983 4.8866H8.00156C7.35445 4.8866 6.82969 5.41136 6.82969 6.05847V18.667C4.74094 19.9353 2.65277 21.2031 0.563906 22.4707L0.564961 22.4723C0.215742 22.6843 0 23.0621 0 23.4725V53.9413C0 54.5884 0.524648 55.1132 1.17188 55.1132H25.0781C25.7254 55.1132 26.25 54.5884 26.25 53.9413C26.25 53.2942 25.7254 52.7694 25.0781 52.7694H5.36086L29.8608 37.8964L54.6036 52.7694H34.9219C34.2748 52.7694 33.75 53.2942 33.75 53.9413C33.75 54.5884 34.2748 55.1132 34.9219 55.1132H58.8281C59.4752 55.1132 60 54.5884 60 53.9413V23.4725C60 23.0606 59.7827 22.6811 59.4311 22.4696ZM52.6017 28.5821C54.2869 27.5701 55.9714 26.5574 57.6562 25.5444V51.8696L35.7585 38.707C41.3728 35.3326 46.988 31.9574 52.6017 28.5821ZM56.5536 23.4727C55.4259 24.1507 54.2981 24.8284 53.1703 25.5061V21.439L56.5536 23.4727ZM7.39359 28.6205L24.0093 38.7069L2.34375 51.8592V25.5548L3.91512 26.5087C5.07457 27.2128 6.23391 27.9168 7.39359 28.6205ZM6.82969 25.5363C6.26367 25.1926 5.69754 24.8491 5.13164 24.5054L3.43008 23.4725C4.56328 22.7848 5.6966 22.0968 6.82969 21.4087V25.5363ZM29.2498 35.5256L26.2677 37.3359L9.17344 26.9591V7.23035H50.8266V26.9148C45.0459 30.3902 39.2645 33.8654 33.4839 37.3397L30.4617 35.523C30.0885 35.2987 29.622 35.2998 29.2498 35.5256Z" fill="#383838"/>
<path d="M30 55.1132C30.6472 55.1132 31.1719 54.5886 31.1719 53.9413C31.1719 53.2941 30.6472 52.7695 30 52.7695C29.3528 52.7695 28.8281 53.2941 28.8281 53.9413C28.8281 54.5886 29.3528 55.1132 30 55.1132Z" fill="#383838"/>
<path d="M40.9907 28.5584C40.9907 27.9113 40.4659 27.3865 39.8188 27.3865H19.897C19.2499 27.3865 18.7251 27.9113 18.7251 28.5584C18.7251 29.2055 19.2499 29.7303 19.897 29.7303H39.8188C40.4661 29.7303 40.9907 29.2056 40.9907 28.5584Z" fill="#383838"/>
<path d="M45.6782 21.3318C45.6782 20.6846 45.1535 20.1599 44.5063 20.1599H15.2095C14.5624 20.1599 14.0376 20.6846 14.0376 21.3318C14.0376 21.9789 14.5624 22.5037 15.2095 22.5037H44.5063C45.1536 22.5037 45.6782 21.979 45.6782 21.3318Z" fill="#383838"/>
<path d="M19.897 15.277H39.8188C40.4659 15.277 40.9907 14.7524 40.9907 14.1052C40.9907 13.4581 40.4659 12.9333 39.8188 12.9333H19.897C19.2499 12.9333 18.7251 13.4581 18.7251 14.1052C18.7251 14.7524 19.2499 15.277 19.897 15.277Z" fill="#383838"/>
</g>
<defs>
<clipPath id="clip0">
<rect width="60" height="60" fill="white"/>
</clipPath>
</defs>
</svg>
