<svg width="115" height="19" viewBox="0 0 115 19" fill="none" xmlns="http://www.w3.org/2000/svg">
<path d="M12.3074 18.8L8.1964 12.86C7.73392 12.9128 7.2543 12.9392 6.75756 12.9392H1.92717V18.8H0.0258484V0.320021H6.75756C9.05285 0.320021 10.8514 0.883222 12.1532 2.00962C13.455 3.13602 14.1059 4.68482 14.1059 6.65602C14.1059 8.09922 13.7462 9.32242 13.0268 10.3256C12.3245 11.3112 11.3139 12.024 9.99495 12.464L14.3885 18.8H12.3074ZM6.70617 11.276C8.48759 11.276 9.84935 10.8712 10.7914 10.0616C11.7335 9.25202 12.2046 8.11682 12.2046 6.65602C12.2046 5.16002 11.7335 4.01602 10.7914 3.22402C9.84935 2.41442 8.48759 2.00962 6.70617 2.00962H1.92717V11.276H6.70617ZM18.5934 0.320021H20.4948V18.8H18.5934V0.320021ZM34.1576 18.9584C32.3762 18.9584 30.766 18.5536 29.3272 17.744C27.9055 16.9344 26.7835 15.8168 25.9613 14.3912C25.1563 12.948 24.7537 11.3376 24.7537 9.56002C24.7537 7.78242 25.1563 6.18082 25.9613 4.75522C26.7835 3.31202 27.9141 2.18562 29.3529 1.37602C30.7917 0.566421 32.4019 0.161621 34.1833 0.161621C35.5193 0.161621 36.7526 0.390422 37.8832 0.848022C39.0137 1.30562 39.9729 1.97442 40.7608 2.85442L39.5532 4.09522C38.1487 2.63442 36.3758 1.90402 34.2347 1.90402C32.813 1.90402 31.5197 2.23842 30.3549 2.90722C29.1902 3.57602 28.2738 4.49122 27.6057 5.65282C26.9548 6.81442 26.6294 8.11682 26.6294 9.56002C26.6294 11.0032 26.9548 12.3056 27.6057 13.4672C28.2738 14.6288 29.1902 15.544 30.3549 16.2128C31.5197 16.8816 32.813 17.216 34.2347 17.216C36.3929 17.216 38.1658 16.4768 39.5532 14.9984L40.7608 16.2392C39.9729 17.1192 39.0051 17.7968 37.8575 18.272C36.7269 18.7296 35.4937 18.9584 34.1576 18.9584ZM59.8447 0.320021V18.8H57.9691V10.2728H46.7153V18.8H44.814V0.320021H46.7153V8.55682H57.9691V0.320021H59.8447ZM77.0458 9.26962C78.2277 9.53362 79.1356 10.0616 79.7693 10.8536C80.4203 11.628 80.7457 12.6312 80.7457 13.8632C80.7457 15.4472 80.1719 16.6704 79.0242 17.5328C77.8937 18.3776 76.2151 18.8 73.9883 18.8H65.715V0.320021H73.4744C75.4785 0.320021 77.0287 0.733622 78.125 1.56082C79.2383 2.38802 79.795 3.55842 79.795 5.07202C79.795 6.09282 79.5467 6.96402 79.0499 7.68562C78.5703 8.38962 77.9023 8.91762 77.0458 9.26962ZM67.6163 1.93042V8.63602H73.346C74.8019 8.63602 75.9239 8.35442 76.7118 7.79122C77.4997 7.21042 77.8937 6.37442 77.8937 5.28322C77.8937 4.19202 77.4997 3.36482 76.7118 2.80162C75.9239 2.22082 74.8019 1.93042 73.346 1.93042H67.6163ZM73.9626 17.1896C75.5727 17.1896 76.7889 16.908 77.6111 16.3448C78.4333 15.7816 78.8444 14.9016 78.8444 13.7048C78.8444 11.3992 77.2171 10.2464 73.9626 10.2464H67.6163V17.1896H73.9626ZM97.8041 17.1104V18.8H85.0858V0.320021H97.4187V2.00962H86.9871V8.58322H96.2882V10.2464H86.9871V17.1104H97.8041ZM114.992 17.1104V18.8H102.273V0.320021H114.606V2.00962H104.175V8.58322H113.476V10.2464H104.175V17.1104H114.992Z" fill="#383838"/>
</svg>
