<svg width="15" height="15" viewBox="0 0 15 15" fill="none" xmlns="http://www.w3.org/2000/svg">
<path d="M11.0078 9.68213C11.7459 8.67414 12.1874 7.43601 12.1874 6.09377C12.1874 2.73378 9.45368 0 6.09371 0C2.73374 0 0 2.73378 0 6.09377C0 9.45376 2.73377 12.1875 6.09374 12.1875C7.43596 12.1875 8.6742 11.746 9.68219 11.0078L13.6743 15L15 13.6743C15 13.6743 11.0078 9.68213 11.0078 9.68213ZM6.09374 10.3125C3.76738 10.3125 1.87501 8.42014 1.87501 6.09377C1.87501 3.76741 3.76738 1.87502 6.09374 1.87502C8.42009 1.87502 10.3125 3.76741 10.3125 6.09377C10.3125 8.42014 8.42006 10.3125 6.09374 10.3125Z" fill="#383838"/>
</svg>
